<?xml version="1.0" standalone="no"?>
<!DOCTYPE svg PUBLIC "-//W3C//DTD SVG 20010904//EN"
 "http://www.w3.org/TR/2001/REC-SVG-20010904/DTD/svg10.dtd">
<svg version="1.0" xmlns="http://www.w3.org/2000/svg"
 width="300.000000pt" height="300.000000pt" viewBox="0 0 300.000000 300.000000"
 preserveAspectRatio="xMidYMid meet">
<metadata>
Created by potrace 1.10, written by Peter Selinger 2001-2011
</metadata>
<g transform="translate(0.000000,300.000000) scale(0.100000,-0.100000)"
fill="#3d85c6" stroke="none">
<path d="M1344 2570 c-127 -23 -293 -106 -394 -197 -111 -100 -195 -234 -242
-383 -20 -65 -23 -96 -23 -225 0 -169 12 -231 70 -354 102 -214 280 -368 510
-441 110 -34 296 -39 418 -11 254 59 455 222 566 462 54 114 66 178 66 344 0
129 -3 160 -23 225 -85 269 -272 460 -540 553 -77 26 -103 30 -222 33 -74 2
-158 -1 -186 -6z m308 -24 c197 -39 353 -133 477 -290 28 -35 51 -67 51 -70 0
-4 11 -23 24 -44 24 -36 65 -154 85 -242 14 -64 6 -273 -13 -345 -108 -396
-489 -644 -895 -585 -210 30 -382 132 -524 308 -9 12 -17 27 -17 32 0 6 -3 10
-8 10 -11 0 -69 118 -92 189 -30 89 -35 131 -35 271 0 110 4 136 29 215 26 80
78 192 95 205 3 3 20 25 36 49 29 43 189 191 206 191 4 0 30 12 56 28 140 81
350 112 525 78z"/>
<path d="M1372 2213 c37 -2 100 -2 140 0 40 1 10 3 -67 3 -77 0 -110 -1 -73
-3z"/>
<path d="M1717 2213 c18 -2 50 -2 70 0 21 2 7 4 -32 4 -38 0 -55 -2 -38 -4z"/>
<path d="M1846 2187 c3 -10 9 -15 12 -12 3 3 0 11 -7 18 -10 9 -11 8 -5 -6z"/>
<path d="M1228 2160 c-1 -5 -2 -190 0 -410 l2 -400 104 0 c81 0 105 3 109 14
4 9 1 13 -7 10 -25 -10 -186 -9 -189 1 -2 6 -3 180 -3 388 1 234 -3 377 -8
377 -6 0 -6 4 0 10 7 7 110 9 290 8 l279 -3 0 -89 0 -89 -135 2 c-74 1 -148
-3 -165 -8 -21 -6 16 -9 123 -8 83 1 152 -2 152 -6 0 -4 9 -3 20 3 19 10 20
19 18 108 l-3 97 -292 3 c-190 1 -292 -1 -295 -8z"/>
<path d="M1472 1888 l3 -63 115 -3 c63 -1 117 -7 120 -12 3 -5 5 -46 5 -91
l-1 -81 -105 -2 c-73 -1 -111 -5 -122 -15 -14 -11 -17 -34 -17 -136 0 -89 -3
-125 -12 -128 -8 -3 -7 -6 4 -6 21 -1 29 51 26 172 -2 48 -3 87 -3 88 0 1 46
4 103 8 66 4 101 3 99 -4 -2 -5 -37 -13 -78 -16 l-74 -5 70 -2 c63 -2 73 1 98
23 25 24 27 32 27 105 0 43 -3 85 -6 94 -5 13 -26 16 -124 16 l-118 0 5 54 c3
34 1 56 -7 61 -8 5 -10 -11 -8 -57z"/>
<path d="M1174 1690 c0 -135 2 -190 3 -122 2 67 2 177 0 245 -1 67 -3 12 -3
-123z"/>
<path d="M1506 1383 c-6 -14 -5 -15 5 -6 7 7 10 15 7 18 -3 3 -9 -2 -12 -12z"/>
<path d="M1273 1323 c32 -2 81 -2 110 0 29 2 3 3 -58 3 -60 0 -84 -1 -52 -3z"/>
<path d="M1263 1303 c37 -2 96 -2 130 0 34 2 4 3 -68 3 -71 0 -99 -1 -62 -3z"/>
<path d="M1167 873 c-4 -3 -7 -48 -7 -99 0 -90 1 -93 23 -92 34 2 49 18 42 45
-4 19 -2 24 12 23 35 -4 43 0 43 25 0 21 -5 25 -30 25 -17 0 -30 5 -30 13 0 7
14 12 37 12 34 0 38 3 41 28 3 27 3 27 -61 27 -35 0 -67 -3 -70 -7z m100 -26
c3 -4 -3 -7 -15 -7 -11 0 -27 -3 -36 -6 -11 -4 -16 -1 -16 10 0 12 8 15 30 13
17 -2 33 -7 37 -10z m-59 -33 c12 -19 27 -32 32 -29 5 3 11 1 15 -5 3 -5 -3
-10 -14 -10 -11 0 -22 -4 -25 -9 -3 -5 -15 -7 -26 -4 -11 3 -17 9 -14 14 3 5
10 7 15 4 5 -4 9 -2 9 4 0 5 -5 11 -12 13 -11 4 -19 58 -8 58 3 0 15 -16 28
-36z m-3 -74 c3 -5 -3 -10 -14 -10 -12 0 -21 5 -21 10 0 6 6 10 14 10 8 0 18
-4 21 -10z"/>
<path d="M1346 858 c-39 -62 -47 -169 -12 -174 31 -4 48 7 44 31 -4 18 -1 21
19 17 18 -3 23 -10 21 -26 -2 -17 2 -21 27 -21 29 0 30 2 33 49 2 28 -4 68
-14 97 -18 48 -19 49 -61 49 -33 0 -46 -5 -57 -22z m109 -53 c11 -36 14 -65 9
-83 -4 -17 -9 -21 -11 -12 -2 8 -15 23 -29 34 -25 18 -26 18 -54 -3 -20 -14
-31 -17 -36 -10 -3 6 0 15 7 20 10 6 11 9 2 9 -7 0 -13 5 -13 11 0 6 6 9 13 6
10 -4 13 2 9 19 -2 13 0 24 6 24 6 0 12 -10 14 -22 2 -15 10 -23 23 -24 15 -1
16 0 3 3 -19 5 -22 12 -11 38 5 15 8 14 19 -6 l13 -24 -2 28 c-1 24 -5 27 -24
22 -22 -5 -38 6 -26 19 3 3 21 6 38 6 30 0 33 -3 50 -55z"/>
<path d="M1430 807 c0 -14 5 -29 10 -32 7 -4 8 3 4 22 -9 38 -14 42 -14 10z"/>
<path d="M1516 872 c-2 -4 -6 -48 -7 -97 l-2 -90 29 0 c26 0 30 4 34 35 7 48
34 48 38 -1 3 -31 7 -36 28 -36 13 0 27 4 31 10 11 18 3 101 -12 112 -11 9
-11 15 1 35 19 36 18 40 -17 40 -25 0 -33 -6 -47 -37 l-17 -38 -3 38 c-3 31
-7 37 -27 37 -13 0 -26 -4 -29 -8z m42 -43 c7 -51 26 -46 69 18 11 16 12 15 7
-10 -4 -17 -1 -34 7 -45 8 -9 14 -24 13 -32 -1 -8 -2 -26 -3 -40 -1 -22 -3
-23 -12 -7 -6 10 -8 24 -6 31 3 8 -7 17 -28 23 -32 10 -34 9 -45 -21 -8 -24
-13 -28 -20 -17 -5 9 -5 22 1 33 6 10 8 22 5 27 -3 4 -8 22 -11 40 -4 24 -2
32 7 29 7 -3 15 -15 16 -29z m-31 -61 c-3 -7 -5 -2 -5 12 0 14 2 19 5 13 2 -7
2 -19 0 -25z"/>
<path d="M1707 873 c-4 -3 -7 -48 -7 -98 l0 -92 63 1 c70 2 87 9 87 37 0 16
-7 19 -45 19 -39 0 -45 -3 -45 -22 0 -23 -12 -17 -16 7 -3 19 15 33 50 37 21
2 30 9 32 26 3 19 -1 22 -30 22 -19 0 -38 5 -41 10 -3 6 -11 10 -17 10 -7 0
-2 -9 10 -20 12 -11 31 -20 44 -20 28 0 13 -15 -25 -24 -18 -4 -26 -3 -23 3 4
5 2 12 -4 16 -6 4 -10 -8 -10 -29 0 -19 -4 -38 -10 -41 -11 -7 -13 49 -4 108
6 34 9 37 40 37 18 0 36 -4 39 -10 3 -5 -3 -10 -15 -10 -12 0 -18 -4 -15 -10
9 -14 58 -13 73 2 7 7 12 20 12 30 0 16 -9 18 -68 18 -38 0 -72 -3 -75 -7z
m118 -23 c3 -5 1 -10 -4 -10 -6 0 -11 5 -11 10 0 6 2 10 4 10 3 0 8 -4 11 -10z
m-25 -140 c0 -5 -7 -10 -15 -10 -8 0 -15 5 -15 10 0 6 7 10 15 10 8 0 15 -4
15 -10z"/>
<path d="M1207 595 c-42 -22 -65 -54 -78 -112 -10 -45 -10 -59 5 -97 19 -49
62 -92 102 -102 32 -8 44 4 21 21 -15 11 -16 13 -2 19 18 7 20 26 3 26 -27 1
-51 31 -64 77 -10 37 -13 41 -13 20 -1 -38 24 -83 57 -102 19 -11 21 -15 7
-12 -11 3 -24 6 -30 8 -5 2 -10 0 -10 -6 0 -5 6 -9 13 -8 7 0 11 -2 7 -5 -3
-3 5 -12 17 -19 13 -7 17 -12 10 -13 -8 0 -27 8 -44 18 -94 55 -97 216 -5 272
35 22 75 29 47 9 -12 -9 -12 -10 -1 -7 22 6 25 28 4 28 -10 0 -31 -7 -46 -15z"/>
<path d="M1330 592 c-16 -13 -25 -34 -30 -71 -4 -29 -3 -54 2 -57 4 -3 8 18 8
45 0 38 5 56 20 71 29 29 74 26 99 -6 12 -15 21 -22 21 -15 0 21 -40 51 -69
51 -16 0 -39 -8 -51 -18z"/>
<path d="M1494 594 c3 -9 6 -18 6 -20 0 -2 14 -4 30 -4 40 0 38 18 -2 23 -18
2 -6 4 27 5 52 1 57 -1 35 -10 -25 -11 -25 -11 -2 -15 25 -5 31 -23 7 -23 -11
0 -15 -11 -13 -42 1 -41 1 -41 5 -8 3 19 10 38 16 42 6 4 12 21 13 38 l2 30
-65 0 c-55 0 -64 -2 -59 -16z"/>
<path d="M1655 602 c-9 -9 -6 -310 4 -316 5 -3 14 1 20 8 8 9 8 16 2 20 -5 4
-12 -2 -14 -11 -3 -10 -5 53 -6 140 0 86 3 157 8 157 4 0 25 -30 44 -67 41
-76 51 -60 12 17 -14 28 -21 50 -16 50 5 0 15 -13 23 -30 14 -32 32 -43 21
-12 -11 29 -35 47 -64 48 -16 1 -31 -1 -34 -4z"/>
<path d="M1750 599 c0 -6 5 -7 10 -4 7 4 10 -49 9 -152 0 -111 -3 -151 -10
-134 -11 28 -24 22 -15 -7 4 -13 16 -19 36 -19 l30 0 1 96 c2 118 -1 215 -7
220 -9 9 -54 9 -54 0z m47 -231 c-1 -46 -3 -11 -3 77 0 88 2 125 3 83 2 -42 2
-114 0 -160z"/>
<path d="M1340 570 c-17 -17 -20 -33 -20 -125 0 -92 3 -108 20 -125 24 -24 38
-25 68 -4 21 14 22 23 22 128 0 97 -3 115 -18 129 -25 22 -48 21 -72 -3z m61
-12 c16 -17 19 -38 19 -114 0 -93 -11 -124 -44 -124 -28 0 -36 25 -36 122 0
127 20 165 61 116z"/>
<path d="M1355 537 c-3 -7 -5 -54 -3 -103 3 -81 5 -89 23 -89 19 0 20 7 20
100 0 87 -2 100 -18 103 -9 2 -19 -3 -22 -11z m35 -92 c0 -78 -3 -95 -15 -95
-12 0 -15 17 -15 95 0 78 3 95 15 95 12 0 15 -17 15 -95z"/>
<path d="M1193 558 c-33 -37 -43 -64 -42 -115 2 -54 24 -107 41 -97 7 5 6 11
-5 19 -9 7 -14 15 -10 18 3 4 1 7 -6 7 -7 0 -10 3 -7 8 2 4 6 31 7 61 2 41 9
60 28 80 15 15 30 25 35 22 5 -2 6 1 2 7 -10 17 -20 15 -43 -10z"/>
<path d="M1260 562 c0 -7 -6 -12 -13 -12 -18 0 -57 -42 -57 -61 0 -8 9 1 20
19 11 17 26 32 34 32 17 0 31 18 22 27 -3 4 -6 1 -6 -5z"/>
<path d="M1676 455 c2 -65 6 -120 9 -123 9 -9 5 212 -4 226 -4 8 -7 -38 -5
-103z"/>
<path d="M1508 543 c8 -3 12 -33 12 -98 0 -65 -4 -95 -12 -98 -8 -3 -6 -6 5
-6 15 -1 17 10 17 104 0 94 -2 105 -17 104 -11 0 -13 -3 -5 -6z"/>
<path d="M1543 445 c0 -58 3 -105 8 -105 5 0 9 47 9 105 0 58 -4 105 -8 105
-4 0 -8 -47 -9 -105z"/>
<path d="M1452 442 c-2 -95 -4 -105 -27 -127 -44 -45 -100 -27 -115 35 l-8 35
-1 -32 c-2 -61 85 -97 129 -53 27 27 31 51 27 155 l-3 90 -2 -103z"/>
<path d="M1708 393 c-2 -61 0 -109 5 -106 4 2 7 40 7 84 0 51 4 78 10 74 6 -3
11 -16 11 -28 1 -16 3 -17 6 -5 2 9 -5 34 -16 55 l-19 38 -4 -112z"/>
<path d="M1295 430 c-3 -5 -2 -17 3 -26 8 -14 10 -12 10 9 0 29 -3 33 -13 17z"/>
<path d="M1582 383 c-2 -35 1 -43 16 -43 11 0 13 3 5 8 -6 4 -13 23 -16 42 -4
33 -4 33 -5 -7z"/>
<path d="M1495 320 c3 -5 1 -11 -5 -15 -23 -14 5 -25 66 -25 48 0 64 3 64 14
0 16 -21 26 -56 26 -38 0 -28 -18 14 -23 23 -2 15 -4 -23 -4 -33 0 -52 1 -42
4 23 6 22 19 -3 26 -11 3 -18 1 -15 -3z"/>
</g>
</svg>
