<?xml version="1.0" standalone="no"?>
<!DOCTYPE svg PUBLIC "-//W3C//DTD SVG 20010904//EN"
 "http://www.w3.org/TR/2001/REC-SVG-20010904/DTD/svg10.dtd">
<svg version="1.0" xmlns="http://www.w3.org/2000/svg"
 width="500.000000pt" height="500.000000pt" viewBox="0 0 500.000000 500.000000"
 preserveAspectRatio="xMidYMid meet">

<g transform="translate(0.000000,500.000000) scale(0.100000,-0.100000)"
fill="#000000" stroke="none">
<path d="M2050 3600 c-6 -11 -17 -20 -25 -20 -8 0 -19 -9 -25 -19 -6 -13 -10
-242 -10 -674 0 -621 1 -655 18 -670 16 -15 45 -17 199 -17 167 0 183 2 205
20 12 11 32 27 43 34 19 13 20 28 23 225 l3 211 25 0 c17 0 24 -5 24 -20 0
-19 7 -20 133 -20 l133 0 42 37 42 36 0 147 c0 110 -3 151 -14 166 -13 17 -30
19 -200 22 l-186 3 0 100 c0 99 0 99 25 99 18 0 25 -5 25 -20 0 -19 7 -20 214
-20 193 0 216 2 228 18 7 9 22 22 33 28 28 15 37 71 33 205 -2 80 -7 121 -17
132 -12 15 -59 17 -487 17 -463 0 -474 0 -484 -20z"/>
<path d="M1937 1453 c-4 -3 -7 -76 -7 -160 l0 -154 48 3 47 3 3 51 3 51 42 -1
42 -1 3 42 3 42 -43 3 c-34 2 -44 7 -46 23 -3 18 3 20 60 20 l63 0 3 43 3 42
-109 0 c-60 0 -112 -3 -115 -7z"/>
<path d="M2252 1447 c-6 -7 -23 -44 -37 -81 -19 -51 -25 -85 -25 -146 l0 -80
34 0 c55 0 66 8 66 49 0 36 1 37 35 33 33 -4 35 -6 35 -43 l0 -39 44 0 c25 0
48 5 51 10 3 6 7 45 7 88 0 64 -5 90 -29 147 l-28 70 -71 3 c-51 2 -74 -1 -82
-11z m86 -105 c2 -12 8 -22 13 -22 5 0 9 -4 9 -10 0 -5 -13 -10 -30 -10 -31 0
-34 7 -24 48 8 28 28 24 32 -6z"/>
<path d="M2523 1454 c-10 -4 -13 -46 -13 -160 l0 -154 43 0 c55 0 67 13 67 73
0 47 1 48 28 45 26 -3 27 -6 30 -61 l3 -58 47 3 47 3 3 85 c3 77 1 87 -19 103
-23 18 -22 27 5 90 l16 37 -44 0 c-36 0 -48 -5 -65 -26 -12 -15 -21 -30 -21
-35 0 -4 -5 -20 -12 -36 -12 -27 -12 -26 -18 32 l-5 60 -40 2 c-22 1 -46 0
-52 -3z"/>
<path d="M2843 1453 c-10 -3 -13 -45 -13 -159 l0 -154 108 0 c120 0 132 5 132
57 l0 32 -67 3 c-51 2 -68 7 -68 17 0 10 13 15 45 15 44 1 45 1 48 38 l3 37
-48 3 c-34 2 -48 7 -48 18 0 11 11 14 47 11 74 -4 88 4 88 50 l0 39 -107 -1
c-60 0 -114 -3 -120 -6z"/>
</g>
</svg>
