<?xml version="1.0" standalone="no"?>
<!DOCTYPE svg PUBLIC "-//W3C//DTD SVG 20010904//EN"
 "http://www.w3.org/TR/2001/REC-SVG-20010904/DTD/svg10.dtd">
<svg version="1.0" xmlns="http://www.w3.org/2000/svg"
 width="300.000000pt" height="300.000000pt" viewBox="0 0 300.000000 300.000000"
 preserveAspectRatio="xMidYMid meet">
<metadata>
Created by potrace 1.10, written by Peter Selinger 2001-2011
</metadata>
<g transform="translate(0.000000,300.000000) scale(0.100000,-0.100000)"
fill="#3d85c6" stroke="none">
<path d="M1344 2570 c-127 -23 -293 -106 -394 -197 -111 -100 -195 -234 -242
-383 -20 -65 -23 -96 -23 -225 0 -169 12 -231 70 -354 102 -214 280 -368 510
-441 110 -34 296 -39 418 -11 254 59 455 222 566 462 54 114 66 178 66 344 0
129 -3 160 -23 225 -85 269 -272 460 -540 553 -77 26 -103 30 -222 33 -74 2
-158 -1 -186 -6z m308 -24 c197 -39 353 -133 477 -290 28 -35 51 -67 51 -70 0
-4 11 -23 24 -44 24 -36 65 -154 85 -242 14 -64 6 -273 -13 -345 -108 -396
-489 -644 -895 -585 -210 30 -382 132 -524 308 -9 12 -17 27 -17 32 0 6 -3 10
-8 10 -11 0 -69 118 -92 189 -30 89 -35 131 -35 271 0 110 4 136 29 215 26 80
78 192 95 205 3 3 20 25 36 49 29 43 189 191 206 191 4 0 30 12 56 28 140 81
350 112 525 78z"/>
<path d="M1372 2213 c37 -2 100 -2 140 0 40 1 10 3 -67 3 -77 0 -110 -1 -73
-3z"/>
<path d="M1717 2213 c18 -2 50 -2 70 0 21 2 7 4 -32 4 -38 0 -55 -2 -38 -4z"/>
<path d="M1846 2187 c3 -10 9 -15 12 -12 3 3 0 11 -7 18 -10 9 -11 8 -5 -6z"/>
<path d="M1228 2160 c-1 -5 -2 -190 0 -410 l2 -400 104 0 c81 0 105 3 109 14
4 9 1 13 -7 10 -25 -10 -186 -9 -189 1 -2 6 -3 180 -3 388 1 234 -3 377 -8
377 -6 0 -6 4 0 10 7 7 110 9 290 8 l279 -3 0 -89 0 -89 -135 2 c-74 1 -148
-3 -165 -8 -21 -6 16 -9 123 -8 83 1 152 -2 152 -6 0 -4 9 -3 20 3 19 10 20
19 18 108 l-3 97 -292 3 c-190 1 -292 -1 -295 -8z"/>
<path d="M1472 1888 l3 -63 115 -3 c63 -1 117 -7 120 -12 3 -5 5 -46 5 -91
l-1 -81 -105 -2 c-73 -1 -111 -5 -122 -15 -14 -11 -17 -34 -17 -136 0 -89 -3
-125 -12 -128 -8 -3 -7 -6 4 -6 21 -1 29 51 26 172 -2 48 -3 87 -3 88 0 1 46
4 103 8 66 4 101 3 99 -4 -2 -5 -37 -13 -78 -16 l-74 -5 70 -2 c63 -2 73 1 98
23 25 24 27 32 27 105 0 43 -3 85 -6 94 -5 13 -26 16 -124 16 l-118 0 5 54 c3
34 1 56 -7 61 -8 5 -10 -11 -8 -57z"/>
<path d="M1174 1690 c0 -135 2 -190 3 -122 2 67 2 177 0 245 -1 67 -3 12 -3
-123z"/>
<path d="M1506 1383 c-6 -14 -5 -15 5 -6 7 7 10 15 7 18 -3 3 -9 -2 -12 -12z"/>
<path d="M1273 1323 c32 -2 81 -2 110 0 29 2 3 3 -58 3 -60 0 -84 -1 -52 -3z"/>
<path d="M1263 1303 c37 -2 96 -2 130 0 34 2 4 3 -68 3 -71 0 -99 -1 -62 -3z"/>
</g>
</svg>
